<svg xmlns="http://www.w3.org/2000/svg" xmlns:xlink="http://www.w3.org/1999/xlink" viewBox="0 0 900.06 900.06"><defs><style>.cls-1{fill:#fff;}.cls-2{isolation:isolate;}.cls-3{fill:#ce1126;}.cls-4{fill:url(#radial-gradient);mix-blend-mode:multiply;opacity:.3;}.cls-5{clip-path:url(#clippath);}.cls-6{fill:none;}.cls-7{fill:#0072c6;}.cls-8{fill:#fcd116;}</style><clipPath id="clippath"><circle class="cls-6" cx="450.03" cy="450.03" r="450.03"></circle></clipPath><radialGradient id="radial-gradient" cx="450.03" cy="450.03" fx="450.03" fy="450.03" r="450.03" gradientUnits="userSpaceOnUse"><stop offset="0" stop-color="#fff"></stop><stop offset=".36" stop-color="#fdfdfd"></stop><stop offset=".48" stop-color="#f6f6f6"></stop><stop offset=".58" stop-color="#eaeaea"></stop><stop offset=".65" stop-color="#d9d9d9"></stop><stop offset=".71" stop-color="#c3c3c3"></stop><stop offset=".77" stop-color="#a8a8a8"></stop><stop offset=".82" stop-color="#878787"></stop><stop offset=".87" stop-color="#626262"></stop><stop offset=".91" stop-color="#373737"></stop><stop offset=".95" stop-color="#090909"></stop><stop offset=".96" stop-color="#000"></stop></radialGradient></defs><g class="cls-2"><g id="Layer_2"><g id="Layer_1-2"><g id="Antigua_and_Barbuda"><g class="cls-5"><g><polygon points="1125.33 0 1125.33 900.06 450.03 900.06 713.71 548.6 860.62 352.82 39.43 352.82 186.34 548.6 450.03 900.06 -225.28 900.06 -225.28 0 1125.33 0"></polygon><polygon class="cls-7" points="860.62 352.82 713.71 548.6 186.34 548.6 39.43 352.82 860.62 352.82"></polygon><polygon class="cls-1" points="713.71 548.6 450.03 900.06 186.34 548.6 713.71 548.6"></polygon><polygon class="cls-3" points="450.03 900.06 -225.28 900.06 -225.28 0 39.43 352.82 186.34 548.6 450.03 900.06"></polygon><polygon class="cls-3" points="1125.33 0 1125.33 900.06 450.03 900.06 713.71 548.6 860.62 352.82 1125.33 0"></polygon><polygon class="cls-8" points="595.24 323.28 721.26 239.53 572.51 270.24 658.05 144.22 533.02 229.56 562.14 80.81 478.39 208.82 450.03 59.27 421.67 208.82 337.92 80.81 367.03 229.56 242 144.22 327.55 270.24 178.79 239.53 304.82 323.28 156.46 352.82 450.03 352.82 743.59 352.82 595.24 323.28"></polygon><polyline class="cls-8" points="450.03 352.82 743.59 352.82 595.24 323.28"></polyline><line class="cls-8" x1="478.39" y1="208.82" x2="450.03" y2="59.27"></line><line class="cls-8" x1="562.14" y1="80.81" x2="478.39" y2="208.82"></line><line class="cls-8" x1="533.02" y1="229.56" x2="562.14" y2="80.81"></line><line class="cls-8" x1="658.05" y1="144.22" x2="533.02" y2="229.56"></line><line class="cls-8" x1="572.51" y1="270.24" x2="658.05" y2="144.22"></line><line class="cls-8" x1="721.26" y1="239.53" x2="572.51" y2="270.24"></line><line class="cls-8" x1="595.24" y1="323.28" x2="721.26" y2="239.53"></line></g><circle class="cls-4" cx="450.03" cy="450.03" r="450.03"></circle></g></g></g></g></g></svg>