<svg xmlns="http://www.w3.org/2000/svg" xmlns:xlink="http://www.w3.org/1999/xlink" viewBox="0 0 900.06 900.06"><defs><style>.cls-1{fill:#fff;}.cls-2{isolation:isolate;}.cls-3{fill:url(#radial-gradient);mix-blend-mode:multiply;opacity:.3;}.cls-4{clip-path:url(#clippath);}.cls-5{fill:none;}.cls-6{fill:#fa0109;}.cls-7{fill:red;}</style><clipPath id="clippath"><circle class="cls-5" cx="450.03" cy="450.03" r="450.03"></circle></clipPath><radialGradient id="radial-gradient" cx="450.03" cy="450.03" fx="450.03" fy="450.03" r="450.03" gradientUnits="userSpaceOnUse"><stop offset="0" stop-color="#fff"></stop><stop offset=".36" stop-color="#fdfdfd"></stop><stop offset=".48" stop-color="#f6f6f6"></stop><stop offset=".58" stop-color="#eaeaea"></stop><stop offset=".65" stop-color="#d9d9d9"></stop><stop offset=".71" stop-color="#c3c3c3"></stop><stop offset=".77" stop-color="#a8a8a8"></stop><stop offset=".82" stop-color="#878787"></stop><stop offset=".87" stop-color="#626262"></stop><stop offset=".91" stop-color="#373737"></stop><stop offset=".95" stop-color="#090909"></stop><stop offset=".96" stop-color="#000"></stop></radialGradient></defs><g class="cls-2"><g id="Layer_2"><g id="Layer_1-2"><g id="Canada"><g class="cls-4"><g><rect class="cls-1" x="182.28" y="0" width="535.49" height="900.06"></rect><polygon class="cls-7" points="435.54 662.11 442.1 561.35 340.27 568.57 346.14 531.72 250.6 453.89 269.04 434.31 254.16 363.83 316.53 376.33 331.2 350.81 388.19 401.45 368.91 290.51 411.23 301.72 449.79 237.94 487.5 302.11 527.31 291.29 509.92 395.07 567.54 350.43 581.58 376.52 640.87 370.14 627.26 435.08 649.47 450.93 554.34 531.91 557.9 567.41 457.61 561.1 460.89 662.11 435.54 662.11"></polygon><rect class="cls-6" x="-185.31" y="0" width="367.59" height="900.06"></rect><rect class="cls-6" x="717.77" y="0" width="367.59" height="900.06"></rect></g></g><circle class="cls-3" cx="450.03" cy="450.03" r="450.03"></circle></g></g></g></g></svg>