<svg xmlns="http://www.w3.org/2000/svg" xmlns:xlink="http://www.w3.org/1999/xlink" viewBox="0 0 900.06 900.06"><defs><style>.cls-1{fill:#fff;}.cls-2{fill:#046a38;}.cls-3{isolation:isolate;}.cls-4{fill:#d50032;}.cls-5{fill:url(#radial-gradient);mix-blend-mode:multiply;opacity:.3;}.cls-6{clip-path:url(#clippath);}.cls-7{fill:none;}.cls-8{fill:#ffcd00;}</style><clipPath id="clippath"><circle class="cls-7" cx="450.03" cy="450.03" r="450.03"></circle></clipPath><radialGradient id="radial-gradient" cx="450.03" cy="450.03" fx="450.03" fy="450.03" r="450.03" gradientUnits="userSpaceOnUse"><stop offset="0" stop-color="#fff"></stop><stop offset=".36" stop-color="#fdfdfd"></stop><stop offset=".48" stop-color="#f6f6f6"></stop><stop offset=".58" stop-color="#eaeaea"></stop><stop offset=".65" stop-color="#d9d9d9"></stop><stop offset=".71" stop-color="#c3c3c3"></stop><stop offset=".77" stop-color="#a8a8a8"></stop><stop offset=".82" stop-color="#878787"></stop><stop offset=".87" stop-color="#626262"></stop><stop offset=".91" stop-color="#373737"></stop><stop offset=".95" stop-color="#090909"></stop><stop offset=".96" stop-color="#000"></stop></radialGradient></defs><g class="cls-3"><g id="Layer_2"><g id="Layer_1-2"><g id="Dominica"><g class="cls-6"><g id="Dominica-2"><rect class="cls-2" x="-450.05" width="1800.15" height="900.06"></rect><g><rect class="cls-8" x="-450.03" y="337.17" width="1800.14" height="75.33"></rect><rect x="-450.03" y="412.37" width="1800.14" height="75.33"></rect><rect class="cls-1" x="-450.03" y="487.56" width="1800.14" height="75.33"></rect></g><g><rect class="cls-8" x="337.19" width="75.32" height="900.06"></rect><rect x="412.39" width="75.32" height="900.06"></rect><rect class="cls-1" x="487.54" width="75.35" height="900.06"></rect></g><circle class="cls-4" cx="450.02" cy="450.03" r="225.17"></circle><g><polygon class="cls-2" points="450.02 247.66 457.52 270.71 481.75 270.71 462.14 284.96 469.63 308.01 450.02 293.76 430.42 308.01 437.91 284.96 418.3 270.71 442.53 270.71 450.02 247.66"></polygon><path d="m470.57,309.3l-20.54-14.92-20.54,14.92,7.85-24.15-20.54-14.92h25.39l7.85-24.15,7.85,24.15h25.39l-20.54,14.92,7.85,24.15Zm-20.54-16.14l.29.21,18.39,13.36-7.13-21.96.29-.21,18.39-13.36h-23.09l-.11-.34-7.02-21.62-7.13,21.96h-23.09l18.67,13.57-.11.34-7.03,21.62,18.68-13.57Z"></path></g><g><polygon class="cls-2" points="568.97 286.31 561.48 309.36 581.09 323.61 556.86 323.61 549.37 346.66 541.87 323.61 517.64 323.61 537.25 309.36 529.76 286.31 549.37 300.55 568.97 286.31"></polygon><path d="m549.36,348.25l-7.85-24.15h-25.39l20.54-14.92-7.85-24.15,20.54,14.92,20.54-14.92-7.85,24.15,20.54,14.92h-25.39l-7.85,24.15Zm-30.22-25.13h23.08l.11.34,7.02,21.62,7.14-21.96h23.08l-18.67-13.57.11-.34,7.03-21.62-18.68,13.57-.29-.21-18.39-13.36,7.13,21.96-.29.21-18.39,13.36Z"></path></g><g><polygon class="cls-2" points="642.49 387.49 622.88 401.74 630.37 424.79 610.76 410.54 591.15 424.79 598.64 401.74 579.03 387.49 603.27 387.49 610.76 364.44 618.25 387.49 642.49 387.49"></polygon><path d="m590.21,426.07l7.85-24.15-20.54-14.92h25.39l7.85-24.15,7.85,24.15h25.39l-20.54,14.92,7.85,24.15-20.54-14.92-20.54,14.92Zm20.54-16.14l.29.21,18.4,13.36-7.14-21.96.29-.21,18.39-13.36h-23.08l-.11-.34-7.03-21.62-7.13,21.96h-23.08l18.67,13.57-.11.34-7.03,21.62,18.67-13.57Z"></path></g><g><polygon class="cls-2" points="642.49 512.56 618.25 512.56 610.76 535.62 603.27 512.56 579.03 512.56 598.64 498.32 591.15 475.26 610.76 489.51 630.37 475.26 622.88 498.32 642.49 512.56"></polygon><path d="m610.76,537.2l-7.85-24.15h-25.39l20.54-14.93-7.85-24.15,20.54,14.92,20.55-14.92-7.85,24.15,20.54,14.93h-25.39l-7.85,24.15Zm-30.22-25.13h23.08l.11.34,7.02,21.62,7.14-21.95h23.08l-18.67-13.57.11-.34,7.03-21.61-18.68,13.57-.29-.21-18.39-13.36,7.13,21.95-.29.21-18.39,13.36Z"></path></g><g><polygon class="cls-2" points="568.97 613.75 549.37 599.5 529.76 613.75 537.25 590.7 517.64 576.45 541.87 576.45 549.37 553.4 556.86 576.45 581.09 576.45 561.48 590.7 568.97 613.75"></polygon><path d="m528.82,615.03l7.85-24.15-20.54-14.92h25.39l7.85-24.15,7.85,24.15h25.39l-20.54,14.92,7.85,24.15-20.54-14.93-20.54,14.93Zm20.54-16.14l.29.21,18.39,13.37-7.13-21.96.29-.21,18.39-13.36h-23.08l-.11-.34-7.03-21.62-7.13,21.96h-23.08l18.67,13.57-.11.34-7.03,21.62,18.67-13.57Z"></path></g><g><polygon class="cls-2" points="450.02 652.4 442.53 629.35 418.3 629.35 437.91 615.1 430.42 592.05 450.02 606.29 469.63 592.05 462.14 615.1 481.75 629.35 457.52 629.35 450.02 652.4"></polygon><path d="m450.03,653.98l-7.85-24.15h-25.39l20.54-14.92-7.85-24.15,20.54,14.92,20.54-14.92-7.85,24.15,20.54,14.92h-25.39l-7.85,24.15Zm-30.22-25.13h23.09l.11.34,7.02,21.62,7.13-21.96h23.09l-18.67-13.57.11-.34,7.03-21.62-18.68,13.57-.29-.21-18.39-13.36,7.13,21.96-.29.21-18.39,13.36Z"></path></g><g><polygon class="cls-2" points="331.07 613.75 338.57 590.7 318.96 576.45 343.19 576.45 350.68 553.4 358.17 576.45 382.41 576.45 362.8 590.7 370.29 613.75 350.68 599.5 331.07 613.75"></polygon><path d="m330.14,615.03l7.85-24.15-20.54-14.92h25.39l7.85-24.15,7.85,24.15h25.39l-20.54,14.92,7.85,24.15-20.54-14.93-20.54,14.93Zm20.54-16.14l.29.21,18.39,13.37-7.13-21.96.29-.21,18.39-13.36h-23.08l-.11-.34-7.03-21.62-7.13,21.96h-23.08l18.67,13.57-.11.34-7.03,21.62,18.67-13.57Z"></path></g><g><polygon class="cls-2" points="257.56 512.56 277.17 498.32 269.68 475.26 289.29 489.51 308.9 475.26 301.41 498.32 321.02 512.56 296.78 512.56 289.29 535.62 281.8 512.56 257.56 512.56"></polygon><path d="m289.29,537.2l-7.85-24.15h-25.39l20.55-14.93-7.85-24.15,20.54,14.92,20.54-14.92-7.85,24.15,20.54,14.93h-25.39l-7.85,24.15Zm-30.22-25.13h23.09l.11.34,7.02,21.62,7.14-21.95h23.08l-18.67-13.57.11-.34,7.03-21.61-18.68,13.57-.29-.21-18.39-13.36,7.13,21.95-.29.21-18.39,13.36Z"></path></g><g><polygon class="cls-2" points="257.56 387.49 281.8 387.49 289.29 364.44 296.78 387.49 321.02 387.49 301.41 401.74 308.9 424.79 289.29 410.54 269.68 424.79 277.17 401.74 257.56 387.49"></polygon><path d="m268.74,426.07l7.85-24.15-20.55-14.92h25.39l7.85-24.15,7.85,24.15h25.39l-20.54,14.92,7.85,24.15-20.54-14.92-20.54,14.92Zm20.54-16.14l.29.21,18.39,13.36-7.13-21.96.29-.21,18.39-13.36h-23.08l-.11-.34-7.03-21.62-7.13,21.96h-23.09l18.68,13.57-.11.34-7.03,21.62,18.67-13.57Z"></path></g><g><polygon class="cls-2" points="331.07 286.31 350.68 300.55 370.29 286.31 362.8 309.36 382.41 323.61 358.17 323.61 350.68 346.66 343.19 323.61 318.96 323.61 338.57 309.36 331.07 286.31"></polygon><path d="m350.68,348.25l-7.85-24.15h-25.39l20.54-14.92-7.85-24.15,20.54,14.92,20.54-14.92-7.85,24.15,20.54,14.92h-25.39l-7.85,24.15Zm-30.22-25.13h23.08l.11.34,7.02,21.62,7.14-21.96h23.08l-18.67-13.57.11-.34,7.03-21.62-18.68,13.57-.29-.21-18.39-13.36,7.13,21.96-.29.21-18.39,13.36Z"></path></g></g><circle class="cls-5" cx="450.03" cy="450.03" r="450.03"></circle></g></g></g></g></g></svg>