<svg xmlns="http://www.w3.org/2000/svg" xmlns:xlink="http://www.w3.org/1999/xlink" id="Layer_1" x="0px" y="0px" viewBox="0 0 120 120" style="enable-background:new 0 0 120 120;" xml:space="preserve"><style type="text/css">	.st0{clip-path:url(#SVGID_00000165222225016343882100000011207990347605447296_);}	.st1{fill:#CF142B;}	.st2{fill:#FFFFFF;}	.st3{fill:none;stroke:#000000;stroke-width:8.672489e-02;stroke-linecap:round;stroke-linejoin:round;stroke-miterlimit:10;}	.st4{fill:none;stroke:#CF142B;stroke-width:0.5782;stroke-miterlimit:10;}			.st5{opacity:0.3;clip-path:url(#SVGID_00000165222225016343882100000011207990347605447296_);fill:url(#SVGID_00000068678846934627867810000012466947187563170987_);}</style><g>	<defs>		<circle id="SVGID_1_" cx="60" cy="60" r="50"></circle>	</defs>	<clipPath id="SVGID_00000134225671320881832110000017708739474638560171_">		<use xlink:href="#SVGID_1_" style="overflow:visible;"></use>	</clipPath>	<g style="clip-path:url(#SVGID_00000134225671320881832110000017708739474638560171_);">		<rect x="60" y="10" class="st1" width="74.9" height="99.9"></rect>		<rect x="-14.9" y="10" class="st2" width="74.9" height="99.9"></rect>		<g>			<path class="st3" d="M41,14.3V23c-0.1-0.1-0.3-0.2-0.4-0.3c-0.9-0.6-2-1-3.2-1c-1.2,0-2.3,0.4-3.2,1c-0.1,0.1-0.3,0.2-0.4,0.3    v-8.7H41z"></path>			<path class="st3" d="M41,32.2v8.7h-7.3v-8.7c0.1,0.1,0.3,0.2,0.4,0.3c0.9,0.6,2,1,3.2,1c1.2,0,2.3-0.4,3.2-1    C40.7,32.4,40.8,32.3,41,32.2z"></path>			<path class="st3" d="M40.6,40.5h-6.4v-8c0.9,0.6,2,1,3.2,1c1.2,0,2.3-0.4,3.2-1V40.5z"></path>			<path class="st3" d="M37.3,21.7c-1.2,0-2.3,0.4-3.2,1v-8h6.4v8C39.6,22.1,38.5,21.7,37.3,21.7z"></path>			<path class="st3" d="M40.6,14.7v8c-0.9-0.6-2-1-3.2-1c-1.2,0-2.3,0.4-3.2,1v-8H40.6z"></path>			<path class="st3" d="M40.6,32.5v8h-6.4v-8c0.9,0.6,2,1,3.2,1C38.5,33.5,39.6,33.1,40.6,32.5z"></path>			<path class="st3" d="M32.4,30.8c0.1,0.1,0.2,0.3,0.3,0.4h-8.7V24h8.7c-0.1,0.1-0.2,0.3-0.3,0.4c-0.6,0.9-1,2-1,3.2    C31.5,28.8,31.8,29.9,32.4,30.8z"></path>			<path class="st3" d="M50.6,24v7.3H42c0.1-0.1,0.2-0.3,0.3-0.4c0.6-0.9,1-2,1-3.2c0-1.2-0.4-2.3-1-3.2c-0.1-0.1-0.2-0.3-0.3-0.4    H50.6z"></path>			<path class="st3" d="M24.5,30.8v-6.4h8c-0.6,0.9-1,2-1,3.2c0,1.2,0.4,2.3,1,3.2H24.5z"></path>			<path class="st3" d="M50.2,30.8h-8c0.6-0.9,1-2,1-3.2c0-1.2-0.4-2.3-1-3.2h8V30.8z"></path>			<path class="st3" d="M31.5,27.6c0,1.2,0.4,2.3,1,3.2h-8v-6.4h8C31.8,25.3,31.5,26.4,31.5,27.6z"></path>			<path class="st3" d="M50.2,24.4v6.4h-8c0.6-0.9,1-2,1-3.2c0-1.2-0.4-2.3-1-3.2H50.2z"></path>			<path class="st4" d="M51.1,23.5v8.3h-7.6c0,0,0,0,0,0.1c-0.1,1-0.9,1.9-2,1.9c0,0-0.1,0-0.1,0v7.6h-8.3v-7.6c0,0,0,0-0.1,0    c-1-0.1-1.9-0.9-2-1.9c0,0,0,0,0-0.1h-7.6v-8.3h7.6v-0.1c0,0,0,0,0,0c0.1-1,0.9-1.8,2-1.9c0,0,0,0,0.1,0v-7.6h8.3v7.6    c0,0,0.1,0,0.1,0c1,0.1,1.9,0.9,2,1.9c0,0,0,0,0,0v0.1H51.1z"></path>			<path class="st3" d="M43.2,27.6c0,1.2-0.4,2.3-1,3.2c-0.1,0.1-0.2,0.3-0.3,0.4c-0.3,0.4-0.6,0.7-1,1c-0.1,0.1-0.3,0.2-0.4,0.3    c-0.9,0.6-2,1-3.2,1c-1.2,0-2.3-0.4-3.2-1c-0.1-0.1-0.3-0.2-0.4-0.3c-0.4-0.3-0.7-0.6-1-1c-0.1-0.1-0.2-0.3-0.3-0.4    c-0.6-0.9-1-2-1-3.2c0-1.2,0.4-2.3,1-3.2c0.1-0.1,0.2-0.3,0.3-0.4c0.3-0.4,0.6-0.7,1-1c0.1-0.1,0.3-0.2,0.4-0.3    c0.9-0.6,2-1,3.2-1c1.2,0,2.3,0.4,3.2,1c0.1,0.1,0.3,0.2,0.4,0.3c0.4,0.3,0.7,0.6,1,1c0.1,0.1,0.2,0.3,0.3,0.4    C42.9,25.3,43.2,26.4,43.2,27.6z"></path>			<circle class="st3" cx="37.3" cy="27.6" r="4.2"></circle>		</g>	</g>			<radialGradient id="SVGID_00000163787911972105521060000005658657119034404285_" cx="60" cy="60" r="49.9535" gradientUnits="userSpaceOnUse">		<stop offset="0" style="stop-color:#FFFFFF"></stop>		<stop offset="0.3561" style="stop-color:#FDFDFD"></stop>		<stop offset="0.4844" style="stop-color:#F6F6F6"></stop>		<stop offset="0.5759" style="stop-color:#EBEBEB"></stop>		<stop offset="0.6499" style="stop-color:#DADADA"></stop>		<stop offset="0.7132" style="stop-color:#C4C4C4"></stop>		<stop offset="0.7693" style="stop-color:#A8A8A8"></stop>		<stop offset="0.8201" style="stop-color:#888888"></stop>		<stop offset="0.8667" style="stop-color:#626262"></stop>		<stop offset="0.9101" style="stop-color:#373737"></stop>		<stop offset="0.9487" style="stop-color:#090909"></stop>		<stop offset="0.9557" style="stop-color:#000000"></stop>	</radialGradient>			<circle style="opacity:0.3;clip-path:url(#SVGID_00000134225671320881832110000017708739474638560171_);fill:url(#SVGID_00000163787911972105521060000005658657119034404285_);" cx="60" cy="60" r="50"></circle></g></svg>