<svg xmlns="http://www.w3.org/2000/svg" xmlns:xlink="http://www.w3.org/1999/xlink" id="Layer_1" x="0px" y="0px" viewBox="0 0 120 120" style="enable-background:new 0 0 120 120;" xml:space="preserve"><style type="text/css">	.st0{clip-path:url(#SVGID_00000086656571890643133460000011901016094459907770_);}	.st1{fill:#DB1616;}	.st2{fill:#0C720C;}	.st3{fill:#FFFF00;stroke:#000000;stroke-width:0.2477;stroke-linecap:round;stroke-linejoin:round;stroke-miterlimit:10;}			.st4{fill-rule:evenodd;clip-rule:evenodd;fill:#DB1616;stroke:#FFFFFF;stroke-width:0.2477;stroke-linecap:round;stroke-linejoin:round;}			.st5{fill-rule:evenodd;clip-rule:evenodd;fill:#FFFFFF;stroke:#000000;stroke-width:0.2477;stroke-linecap:round;stroke-linejoin:round;}			.st6{fill-rule:evenodd;clip-rule:evenodd;fill:#FFFF00;stroke:#000000;stroke-width:0.1102;stroke-linecap:round;stroke-linejoin:round;}	.st7{fill-rule:evenodd;clip-rule:evenodd;fill:#003399;}	.st8{fill-rule:evenodd;clip-rule:evenodd;fill:#FFFFFF;}			.st9{opacity:0.3;clip-path:url(#SVGID_00000086656571890643133460000011901016094459907770_);fill:url(#SVGID_00000117665679914489809180000001399275551501284240_);}</style><g>	<defs>		<circle id="SVGID_1_" cx="60" cy="60" r="50"></circle>	</defs>	<clipPath id="SVGID_00000085946525851279744240000016402259300608428213_">		<use xlink:href="#SVGID_1_" style="overflow:visible;"></use>	</clipPath>	<g style="clip-path:url(#SVGID_00000085946525851279744240000016402259300608428213_);">		<rect x="50.1" y="10" class="st1" width="90.1" height="99.9"></rect>		<rect x="-9.6" y="10" class="st2" width="59.9" height="99.9"></rect>		<g>			<g>				<path class="st3" d="M70.6,73.6c-0.5,0.8-1.1,1.5-1.7,2.3c-1.2,0.2-2.5,0.3-3.8,0.4c-4,0.4-8.3,0.6-12.8,0.6     c-5.8,0-11.7-0.3-17.3-1c-1.3-0.1-2.6-0.3-3.8-0.5c-0.5-0.6-0.9-1.2-1.3-1.8l0.1-0.4c1,0.2,2,0.3,3,0.4     c11.1,1.5,23.9,1.6,34.2,0.4C68.4,73.9,69.5,73.8,70.6,73.6z"></path>			</g>			<g>				<path class="st3" d="M50.3,35.5c-13.5,0-24.5,11-24.5,24.5c0,5,1.5,9.7,4.2,13.6c0.4,0.6,0.9,1.2,1.3,1.8     c4.5,5.6,11.4,9.1,19,9.1c7.5,0,14.1-3.3,18.6-8.6c0.6-0.7,1.2-1.5,1.7-2.3c2.6-3.9,4.2-8.6,4.2-13.6     C74.8,46.5,63.8,35.5,50.3,35.5z M67.2,74.1c-0.7,0.8-1.4,1.5-2.1,2.2C61.2,79.9,56,82,50.3,82C44.4,82,39,79.7,35,75.9     c-0.7-0.7-1.4-1.5-2.1-2.3c-3-3.8-4.7-8.5-4.7-13.6c0-12.1,9.9-22,22-22s22,9.9,22,22C72.3,65.3,70.4,70.3,67.2,74.1z"></path>			</g>			<g>				<path class="st3" d="M29.2,73.2l-1.9-3.9c0.3-0.1,33.5-11.2,45.6-19.3l1.4,3.9C61.7,62.3,30.4,72.8,29.2,73.2z"></path>			</g>			<g>				<path class="st3" d="M72.1,48.6c-13.1-2.1-30.6-4.2-42.4-2.3l1.4-2c12-1.9,26.6,0.1,39.9,2.2L72.1,48.6z"></path>			</g>			<g>				<path class="st3" d="M50.9,68.1c-9.6,0-19-2.3-25.1-5.4L25.7,61c11.8,6.1,39,8.2,49.1,2.2l-0.3,1.9     C69.1,68.3,60.5,68.1,50.9,68.1z"></path>			</g>			<g>				<path class="st3" d="M74.9,60.9c-11.8-6.1-39.1-6-49.3,0.1v-2.3c10.6-6.3,37-6.4,49.3-0.1L74.9,60.9z"></path>			</g>			<g>				<rect x="49.3" y="34.9" class="st3" width="2" height="50.3"></rect>			</g>			<g>				<path class="st3" d="M74.3,65.8c-0.3-0.1-32.4-13.2-46.7-16l2-3.6c14.9,2.9,44,16.4,45.1,16.9L74.3,65.8z"></path>			</g>			<path class="st4" d="M63.3,76.8H37.2c-0.8,0-1.5-0.6-1.5-1.5V43.2h29v32.2C64.8,76.2,64.2,76.8,63.3,76.8z"></path>			<path class="st5" d="M50.3,69.9c-4.2,0-7.6-3.4-7.6-7.6V50.1h15.2v12.2C57.9,66.5,54.5,69.9,50.3,69.9z"></path>			<g>				<path class="st6" d="M52.7,49.3h-4.9c0,0,0,0,0,0v-0.3c0,0,0,0,0,0h4.9c0,0,0,0,0,0L52.7,49.3C52.7,49.3,52.7,49.3,52.7,49.3z"></path>				<path class="st6" d="M52.7,46.8h-4.9c0,0,0,0,0,0v-0.3c0,0,0,0,0,0h4.9c0,0,0,0,0,0L52.7,46.8C52.7,46.8,52.7,46.8,52.7,46.8z"></path>				<polygon class="st6" points="52.5,48.9 48.1,48.9 48.3,46.8 52.4,46.8     "></polygon>				<path class="st6" d="M51.4,47.9v1h-2.1v-1c0-0.5,0.4-1,1-1h0.2C50.9,46.9,51.4,47.4,51.4,47.9z"></path>				<path class="st6" d="M50.8,47.9v1h-0.9v-1c0-0.2,0.2-0.4,0.4-0.4h0.2C50.6,47.5,50.8,47.7,50.8,47.9z"></path>				<polygon class="st6" points="49.2,45.2 49.2,45.5 49,45.5 49,45.1 48.7,45.1 48.7,45.5 48.5,45.5 48.5,45.2 48.3,45.2      48.3,45.5 48.3,46.5 49.4,46.5 49.4,45.5 49.4,45.2     "></polygon>				<polygon class="st6" points="50.7,44.3 50.7,44.6 50.4,44.6 50.4,44.2 50.2,44.2 50.2,44.6 50,44.6 50,44.3 49.7,44.3      49.7,44.6 49.7,46.4 50.9,46.4 50.9,44.6 50.9,44.3     "></polygon>									<rect x="51.2" y="45.5" transform="matrix(-1 -4.637280e-11 4.637280e-11 -1 103.5827 91.9545)" class="st6" width="1.1" height="1"></rect>				<g>					<rect x="52.1" y="45.2" class="st6" width="0.2" height="0.3"></rect>					<rect x="51.2" y="45.2" class="st6" width="0.2" height="0.3"></rect>					<rect x="51.7" y="45.1" class="st6" width="0.2" height="0.4"></rect>				</g>			</g>			<g>				<path class="st6" d="M41.4,49.3h-4.9c0,0,0,0,0,0v-0.3c0,0,0,0,0,0h4.9c0,0,0,0,0,0L41.4,49.3C41.4,49.3,41.4,49.3,41.4,49.3z"></path>				<path class="st6" d="M41.4,46.8h-4.9c0,0,0,0,0,0v-0.3c0,0,0,0,0,0h4.9c0,0,0,0,0,0L41.4,46.8C41.4,46.8,41.4,46.8,41.4,46.8z"></path>				<polygon class="st6" points="41.2,48.9 36.7,48.9 36.9,46.8 41,46.8     "></polygon>				<path class="st6" d="M40,47.9v1h-2.1v-1c0-0.5,0.4-1,1-1H39C39.6,46.9,40,47.4,40,47.9z"></path>				<path class="st6" d="M39.4,47.9v1h-0.9v-1c0-0.2,0.2-0.4,0.4-0.4H39C39.3,47.5,39.4,47.7,39.4,47.9z"></path>				<polygon class="st6" points="37.8,45.2 37.8,45.5 37.6,45.5 37.6,45.1 37.4,45.1 37.4,45.5 37.2,45.5 37.2,45.2 36.9,45.2      36.9,45.5 36.9,46.5 38,46.5 38,45.5 38,45.2     "></polygon>				<polygon class="st6" points="39.3,44.3 39.3,44.6 39.1,44.6 39.1,44.2 38.9,44.2 38.9,44.6 38.6,44.6 38.6,44.3 38.4,44.3      38.4,44.6 38.4,46.4 39.6,46.4 39.6,44.6 39.6,44.3     "></polygon>									<rect x="39.9" y="45.5" transform="matrix(-1 -4.637280e-11 4.637280e-11 -1 80.8832 91.9545)" class="st6" width="1.1" height="1"></rect>				<g>					<rect x="40.8" y="45.2" class="st6" width="0.2" height="0.3"></rect>					<rect x="39.9" y="45.2" class="st6" width="0.2" height="0.3"></rect>					<rect x="40.3" y="45.1" class="st6" width="0.2" height="0.4"></rect>				</g>			</g>			<g>				<path class="st6" d="M59.2,49.3h4.9c0,0,0,0,0,0v-0.3c0,0,0,0,0,0h-4.9c0,0,0,0,0,0L59.2,49.3C59.2,49.3,59.2,49.3,59.2,49.3z"></path>				<path class="st6" d="M59.2,46.8h4.9c0,0,0,0,0,0v-0.3c0,0,0,0,0,0h-4.9c0,0,0,0,0,0L59.2,46.8C59.2,46.8,59.2,46.8,59.2,46.8z"></path>				<polygon class="st6" points="59.4,48.9 63.8,48.9 63.6,46.8 59.6,46.8     "></polygon>				<path class="st6" d="M60.5,47.9v1h2.1v-1c0-0.5-0.4-1-1-1h-0.2C61,46.9,60.5,47.4,60.5,47.9z"></path>				<path class="st6" d="M61.1,47.9v1h0.9v-1c0-0.2-0.2-0.4-0.4-0.4h-0.2C61.3,47.5,61.1,47.7,61.1,47.9z"></path>				<polygon class="st6" points="62.7,45.2 62.7,45.5 63,45.5 63,45.1 63.2,45.1 63.2,45.5 63.4,45.5 63.4,45.2 63.6,45.2      63.6,45.5 63.6,46.5 62.5,46.5 62.5,45.5 62.5,45.2     "></polygon>				<polygon class="st6" points="61.2,44.3 61.2,44.6 61.5,44.6 61.5,44.2 61.7,44.2 61.7,44.6 62,44.6 62,44.3 62.2,44.3      62.2,44.6 62.2,46.4 61,46.4 61,44.6 61,44.3     "></polygon>				<rect x="59.6" y="45.5" class="st6" width="1.1" height="1"></rect>				<g>					<rect x="59.6" y="45.2" class="st6" width="0.2" height="0.3"></rect>					<rect x="60.4" y="45.2" class="st6" width="0.2" height="0.3"></rect>					<rect x="60" y="45.1" class="st6" width="0.2" height="0.4"></rect>				</g>			</g>			<g>				<path class="st6" d="M41.4,60.1h-4.9c0,0,0,0,0,0v-0.3c0,0,0,0,0,0h4.9c0,0,0,0,0,0L41.4,60.1C41.4,60.1,41.4,60.1,41.4,60.1z"></path>				<path class="st6" d="M41.4,57.7h-4.9c0,0,0,0,0,0v-0.3c0,0,0,0,0,0h4.9c0,0,0,0,0,0L41.4,57.7C41.4,57.7,41.4,57.7,41.4,57.7z"></path>				<polygon class="st6" points="41.2,59.8 36.7,59.8 36.9,57.7 41,57.7     "></polygon>				<path class="st6" d="M40,58.8v1h-2.1v-1c0-0.5,0.4-1,1-1H39C39.6,57.8,40,58.2,40,58.8z"></path>				<path class="st6" d="M39.4,58.8v1h-0.9v-1c0-0.2,0.2-0.4,0.4-0.4H39C39.3,58.4,39.4,58.5,39.4,58.8z"></path>				<polygon class="st6" points="37.8,56 37.8,56.3 37.6,56.3 37.6,56 37.4,56 37.4,56.3 37.2,56.3 37.2,56 36.9,56 36.9,56.3      36.9,57.3 38,57.3 38,56.3 38,56     "></polygon>				<polygon class="st6" points="39.3,55.2 39.3,55.5 39.1,55.5 39.1,55.1 38.9,55.1 38.9,55.5 38.6,55.5 38.6,55.2 38.4,55.2      38.4,55.5 38.4,57.3 39.6,57.3 39.6,55.5 39.6,55.2     "></polygon>									<rect x="39.9" y="56.3" transform="matrix(-1 -4.471680e-11 4.471680e-11 -1 80.8832 113.6288)" class="st6" width="1.1" height="1"></rect>				<g>					<rect x="40.8" y="56" class="st6" width="0.2" height="0.3"></rect>					<rect x="39.9" y="56" class="st6" width="0.2" height="0.3"></rect>					<rect x="40.3" y="56" class="st6" width="0.2" height="0.4"></rect>				</g>			</g>			<g>				<path class="st6" d="M59.2,60.1h4.9c0,0,0,0,0,0v-0.3c0,0,0,0,0,0h-4.9c0,0,0,0,0,0L59.2,60.1C59.2,60.1,59.2,60.1,59.2,60.1z"></path>				<path class="st6" d="M59.2,57.7h4.9c0,0,0,0,0,0v-0.3c0,0,0,0,0,0h-4.9c0,0,0,0,0,0L59.2,57.7C59.2,57.7,59.2,57.7,59.2,57.7z"></path>				<polygon class="st6" points="59.4,59.8 63.8,59.8 63.6,57.7 59.6,57.7     "></polygon>				<path class="st6" d="M60.5,58.8v1h2.1v-1c0-0.5-0.4-1-1-1h-0.2C61,57.8,60.5,58.2,60.5,58.8z"></path>				<path class="st6" d="M61.1,58.8v1h0.9v-1c0-0.2-0.2-0.4-0.4-0.4h-0.2C61.3,58.4,61.1,58.5,61.1,58.8z"></path>				<polygon class="st6" points="62.7,56 62.7,56.3 63,56.3 63,56 63.2,56 63.2,56.3 63.4,56.3 63.4,56 63.6,56 63.6,56.3      63.6,57.3 62.5,57.3 62.5,56.3 62.5,56     "></polygon>				<polygon class="st6" points="61.2,55.2 61.2,55.5 61.5,55.5 61.5,55.1 61.7,55.1 61.7,55.5 62,55.5 62,55.2 62.2,55.2      62.2,55.5 62.2,57.3 61,57.3 61,55.5 61,55.2     "></polygon>				<rect x="59.6" y="56.3" class="st6" width="1.1" height="1"></rect>				<g>					<rect x="59.6" y="56" class="st6" width="0.2" height="0.3"></rect>					<rect x="60.4" y="56" class="st6" width="0.2" height="0.3"></rect>					<rect x="60" y="56" class="st6" width="0.2" height="0.4"></rect>				</g>			</g>			<g>				<path class="st6" d="M55.4,69.5l3.8,3.1c0,0,0,0,0,0l0.2-0.3c0,0,0,0,0,0l-3.8-3.1c0,0,0,0,0,0L55.4,69.5     C55.4,69.5,55.4,69.5,55.4,69.5z"></path>				<path class="st6" d="M56.9,67.6l3.8,3.1c0,0,0,0,0,0l0.2-0.3c0,0,0,0,0,0l-3.8-3.1c0,0,0,0,0,0L56.9,67.6     C56.9,67.6,56.9,67.6,56.9,67.6z"></path>				<polygon class="st6" points="55.8,69.4 59.2,72.2 60.4,70.4 57.2,67.9     "></polygon>				<path class="st6" d="M57.3,69.3l-0.6,0.8l1.6,1.3l0.6-0.8c0.3-0.4,0.3-1-0.1-1.4l-0.1-0.1C58.3,68.8,57.7,68.9,57.3,69.3z"></path>				<path class="st6" d="M57.8,69.7l-0.6,0.8l0.7,0.6l0.6-0.8c0.1-0.2,0.1-0.4-0.1-0.6l-0.1-0.1C58.1,69.5,57.9,69.5,57.8,69.7z"></path>				<polygon class="st6" points="60.7,68.6 60.5,68.8 60.7,69 60.9,68.7 61.1,68.8 60.9,69.1 61.1,69.2 61.2,69 61.4,69.2      61.2,69.4 60.6,70.1 59.8,69.4 60.4,68.7 60.5,68.5     "></polygon>				<polygon class="st6" points="60.1,67 59.9,67.2 60.1,67.3 60.3,67.1 60.5,67.2 60.3,67.5 60.5,67.6 60.7,67.4 60.8,67.6      60.7,67.8 59.5,69.2 58.6,68.5 59.7,67 59.9,66.8     "></polygon>				<rect x="57.6" y="67.1" transform="matrix(0.779 0.627 -0.627 0.779 55.2193 -21.5606)" class="st6" width="1.1" height="1"></rect>				<g>											<rect x="58.1" y="66.7" transform="matrix(0.627 -0.779 0.779 0.627 -30.3049 70.2825)" class="st6" width="0.3" height="0.2"></rect>					<rect x="58.8" y="67.2" transform="matrix(0.627 -0.779 0.779 0.627 -30.4774 71.015)" class="st6" width="0.3" height="0.2"></rect>											<rect x="58.4" y="66.9" transform="matrix(0.627 -0.779 0.779 0.627 -30.3495 70.6585)" class="st6" width="0.4" height="0.2"></rect>				</g>			</g>			<g>				<path class="st6" d="M45.2,69.5l-3.8,3.1c0,0,0,0,0,0l-0.2-0.3c0,0,0,0,0,0l3.8-3.1c0,0,0,0,0,0L45.2,69.5     C45.2,69.5,45.2,69.5,45.2,69.5z"></path>				<path class="st6" d="M43.6,67.6l-3.8,3.1c0,0,0,0,0,0l-0.2-0.3c0,0,0,0,0,0l3.8-3.1c0,0,0,0,0,0L43.6,67.6     C43.6,67.6,43.6,67.6,43.6,67.6z"></path>				<polygon class="st6" points="44.8,69.4 41.3,72.2 40.2,70.4 43.3,67.9     "></polygon>				<path class="st6" d="M43.2,69.3l0.6,0.8l-1.6,1.3l-0.6-0.8c-0.3-0.4-0.3-1,0.1-1.4l0.1-0.1C42.3,68.8,42.9,68.9,43.2,69.3z"></path>				<path class="st6" d="M42.8,69.7l0.6,0.8l-0.7,0.6l-0.6-0.8c-0.1-0.2-0.1-0.4,0.1-0.6l0.1-0.1C42.4,69.5,42.7,69.5,42.8,69.7z"></path>				<polygon class="st6" points="39.8,68.6 40,68.8 39.8,69 39.6,68.7 39.4,68.8 39.7,69.1 39.5,69.2 39.3,69 39.2,69.2 39.3,69.4      39.9,70.1 40.8,69.4 40.2,68.7 40,68.5     "></polygon>				<polygon class="st6" points="40.5,67 40.6,67.2 40.4,67.3 40.2,67.1 40,67.2 40.3,67.5 40.1,67.6 39.9,67.4 39.7,67.6      39.9,67.8 41,69.2 42,68.5 40.8,67 40.6,66.8     "></polygon>				<rect x="41.8" y="67.1" transform="matrix(-0.779 0.627 -0.627 -0.779 117.7164 93.6079)" class="st6" width="1.1" height="1"></rect>				<g>											<rect x="42.2" y="66.7" transform="matrix(0.779 -0.627 0.627 0.779 -32.5297 41.2913)" class="st6" width="0.2" height="0.3"></rect>											<rect x="41.5" y="67.2" transform="matrix(0.779 -0.627 0.627 0.779 -33.0223 40.9864)" class="st6" width="0.2" height="0.3"></rect>											<rect x="41.8" y="66.8" transform="matrix(0.779 -0.627 0.627 0.779 -32.7586 41.1108)" class="st6" width="0.2" height="0.4"></rect>				</g>			</g>			<g>				<g>					<path class="st7" d="M50.3,56.3c-0.9,0-1.7-0.8-1.7-1.7v-2.8H52v2.8C52,55.6,51.2,56.3,50.3,56.3z"></path>					<g>						<circle class="st8" cx="49.3" cy="52.6" r="0.3"></circle>						<circle class="st8" cx="51.2" cy="52.6" r="0.3"></circle>						<circle class="st8" cx="49.3" cy="54.9" r="0.3"></circle>						<circle class="st8" cx="51.2" cy="54.9" r="0.3"></circle>						<circle class="st8" cx="50.3" cy="53.8" r="0.3"></circle>					</g>				</g>				<g>					<path class="st7" d="M50.3,67.4c-0.9,0-1.7-0.8-1.7-1.7v-2.8H52v2.8C52,66.6,51.2,67.4,50.3,67.4z"></path>					<g>						<circle class="st8" cx="49.3" cy="63.7" r="0.3"></circle>						<circle class="st8" cx="51.2" cy="63.7" r="0.3"></circle>						<circle class="st8" cx="49.3" cy="66" r="0.3"></circle>						<circle class="st8" cx="51.2" cy="66" r="0.3"></circle>						<circle class="st8" cx="50.3" cy="64.8" r="0.3"></circle>					</g>				</g>			</g>			<g>				<path class="st7" d="M50.3,61.9c-0.9,0-1.7-0.8-1.7-1.7v-2.8H52v2.8C52,61.1,51.2,61.9,50.3,61.9z"></path>				<g>					<circle class="st8" cx="49.3" cy="58.2" r="0.3"></circle>					<circle class="st8" cx="51.2" cy="58.2" r="0.3"></circle>					<circle class="st8" cx="49.3" cy="60.4" r="0.3"></circle>					<circle class="st8" cx="51.2" cy="60.4" r="0.3"></circle>					<circle class="st8" cx="50.3" cy="59.3" r="0.3"></circle>				</g>			</g>			<g>				<g>					<path class="st7" d="M45.4,61.9c-0.9,0-1.7-0.8-1.7-1.7v-2.8h3.4v2.8C47.1,61.1,46.4,61.9,45.4,61.9z"></path>					<g>						<circle class="st8" cx="44.4" cy="58.2" r="0.3"></circle>						<circle class="st8" cx="46.4" cy="58.2" r="0.3"></circle>						<circle class="st8" cx="44.4" cy="60.4" r="0.3"></circle>						<circle class="st8" cx="46.4" cy="60.4" r="0.3"></circle>						<circle class="st8" cx="45.5" cy="59.3" r="0.3"></circle>					</g>				</g>				<g>					<path class="st7" d="M55.1,61.9c-0.9,0-1.7-0.8-1.7-1.7v-2.8h3.4v2.8C56.9,61.1,56.1,61.9,55.1,61.9z"></path>					<g>						<circle class="st8" cx="54.2" cy="58.2" r="0.3"></circle>						<circle class="st8" cx="56.1" cy="58.2" r="0.3"></circle>						<circle class="st8" cx="54.2" cy="60.4" r="0.3"></circle>						<circle class="st8" cx="56.1" cy="60.4" r="0.3"></circle>						<circle class="st8" cx="55.2" cy="59.3" r="0.3"></circle>					</g>				</g>			</g>		</g>	</g>			<radialGradient id="SVGID_00000032620520614242057690000011546187705088477577_" cx="60" cy="60" r="49.9535" gradientUnits="userSpaceOnUse">		<stop offset="0" style="stop-color:#FFFFFF"></stop>		<stop offset="0.3561" style="stop-color:#FDFDFD"></stop>		<stop offset="0.4844" style="stop-color:#F6F6F6"></stop>		<stop offset="0.5759" style="stop-color:#EBEBEB"></stop>		<stop offset="0.6499" style="stop-color:#DADADA"></stop>		<stop offset="0.7132" style="stop-color:#C4C4C4"></stop>		<stop offset="0.7693" style="stop-color:#A8A8A8"></stop>		<stop offset="0.8201" style="stop-color:#888888"></stop>		<stop offset="0.8667" style="stop-color:#626262"></stop>		<stop offset="0.9101" style="stop-color:#373737"></stop>		<stop offset="0.9487" style="stop-color:#090909"></stop>		<stop offset="0.9557" style="stop-color:#000000"></stop>	</radialGradient>			<circle style="opacity:0.3;clip-path:url(#SVGID_00000085946525851279744240000016402259300608428213_);fill:url(#SVGID_00000032620520614242057690000011546187705088477577_);" cx="60" cy="60" r="50"></circle></g></svg>