<svg xmlns="http://www.w3.org/2000/svg" xmlns:xlink="http://www.w3.org/1999/xlink" id="Layer_1" x="0px" y="0px" viewBox="0 0 120 120" style="enable-background:new 0 0 120 120;" xml:space="preserve"><style type="text/css">	.st0{clip-path:url(#SVGID_00000040550573225223313070000014753755285404967093_);}	.st1{fill:#B51014;}	.st2{fill:#FFC700;}	.st3{fill:none;stroke:#000000;stroke-width:0.5994;stroke-linecap:round;stroke-linejoin:round;stroke-miterlimit:10;}	.st4{fill:#AD1519;stroke:#000000;stroke-width:0.5994;stroke-linecap:round;stroke-linejoin:round;stroke-miterlimit:10;}	.st5{fill:#FABD00;stroke:#000000;stroke-width:0.5994;stroke-linecap:round;stroke-linejoin:round;stroke-miterlimit:10;}	.st6{fill:#0044AD;stroke:#000000;stroke-width:0.3996;stroke-linecap:round;stroke-linejoin:round;stroke-miterlimit:10;}	.st7{fill:#FABD00;stroke:#000000;stroke-width:0.3996;stroke-linecap:round;stroke-linejoin:round;stroke-miterlimit:10;}	.st8{fill:#B2B2B2;stroke:#000000;stroke-width:0.3996;stroke-linecap:round;stroke-linejoin:round;stroke-miterlimit:10;}	.st9{fill:#B50027;stroke:#000000;stroke-width:0.3996;stroke-linecap:round;stroke-linejoin:round;stroke-miterlimit:10;}	.st10{fill:#B2B2B2;stroke:#000000;stroke-width:0.5994;stroke-linecap:round;stroke-linejoin:round;stroke-miterlimit:10;}	.st11{fill:#AD1519;stroke:#000000;stroke-width:0.3996;stroke-linecap:round;stroke-linejoin:round;stroke-miterlimit:10;}	.st12{fill:#AD1519;stroke:#FABD00;stroke-width:0.3996;stroke-linecap:round;stroke-linejoin:round;stroke-miterlimit:10;}	.st13{stroke:#000000;stroke-width:0.3996;stroke-linecap:round;stroke-linejoin:round;stroke-miterlimit:10;}	.st14{fill:#D85AAC;stroke:#000000;stroke-width:0.1998;stroke-linecap:round;stroke-linejoin:round;stroke-miterlimit:10;}	.st15{stroke:#000000;stroke-width:0.1998;stroke-linecap:round;stroke-linejoin:round;stroke-miterlimit:10;}	.st16{fill:#FABD00;}	.st17{fill:#006F46;}	.st18{fill:none;stroke:#000000;stroke-width:9.990707e-02;stroke-miterlimit:10;}			.st19{opacity:0.3;clip-path:url(#SVGID_00000040550573225223313070000014753755285404967093_);fill:url(#SVGID_00000030465216834628909880000010570468036924345250_);}</style><g>	<defs>		<circle id="SVGID_1_" cx="60" cy="60" r="50"></circle>	</defs>	<clipPath id="SVGID_00000109743988968813291400000003315483094784692917_">		<use xlink:href="#SVGID_1_" style="overflow:visible;"></use>	</clipPath>	<g style="clip-path:url(#SVGID_00000109743988968813291400000003315483094784692917_);">		<rect x="10" y="10" class="st1" width="149.9" height="25"></rect>		<rect x="10" y="85" class="st1" width="149.9" height="25"></rect>		<rect x="10" y="34.9" class="st2" width="150.1" height="50.1"></rect>		<g>			<g>				<path class="st3" d="M36.5,46.9c-0.4-0.1-0.7-0.2-1.1-0.2c-1.6,0-3,1.1-3.4,2.7c-0.3-0.5-0.5-1.1-0.5-1.7c0-2.6,3.2-3.9,5-2     C36.4,46.1,36.4,46.5,36.5,46.9z"></path>				<path class="st3" d="M42,47.4c0-0.1-0.1-0.1-0.1-0.2c-0.5-0.4-1.1-0.7-1.9-0.7c-1.2,0-2.2,0.7-2.6,1.7c-0.2-0.2-0.4-0.4-0.7-0.5     c0,0,0,0,0,0c-1-1.9,0.3-4.3,2.5-4.3C41.5,43.4,42.8,45.6,42,47.4z"></path>				<path class="st3" d="M52,48.9c-0.6-1.2-1.8-2.1-3.2-2.1c-0.5,0-0.9,0.1-1.3,0.2c0.1-0.5,0.1-1.1,0-1.6c0.5-0.5,1.2-0.7,1.9-0.7     C51.6,44.7,52.9,47,52,48.9z"></path>				<path class="st3" d="M47.1,47.9C47.1,47.9,47.1,47.9,47.1,47.9C47.1,47.9,47.1,48,47.1,47.9c-0.1,0.1-0.1,0.2-0.2,0.3     c-0.4-0.9-1.4-1.7-2.6-1.7c-0.9,0-1.6,0.4-2.2,1c0,0,0,0,0-0.1c0.3-0.6,0.3-1.5,0-2.2c0.4-1,1.5-1.8,2.7-1.8     C47.1,43.4,48.4,46.1,47.1,47.9z"></path>				<path class="st4" d="M50.5,50.2C50.5,50.2,50.5,50.2,50.5,50.2C50.6,50.2,50.6,50.2,50.5,50.2z"></path>				<path class="st4" d="M48.8,46.8c-0.5,0-0.9,0.1-1.3,0.2c-0.2,0.1-0.3,0.2-0.5,0.3c-0.6-0.8-1.7-1.4-2.8-1.4     c-0.8,0-1.5,0.2-2.1,0.7c-0.6-0.4-1.3-0.7-2.1-0.7c-1.1,0-2.1,0.5-2.8,1.4L37,47.1h0c-0.1-0.1-0.3-0.1-0.4-0.2h0     c-0.4-0.1-0.7-0.2-1.1-0.2c-1.6,0-3,1.1-3.4,2.7c0.1,0.2,0.3,0.4,0.5,0.6l0.4,0.3c0,0,0.1-0.1,1.3,1.1c0.2,0.2,0.5,0.5,0.8,0.9     c0,0,0.1,0.1,0.1,0.1l0.7,1.6c7.6-0.2,4.8-0.2,12.1,0l0.7-1.6c0,0,0,0,0.1-0.1c0.2-0.1,0.6-0.5,0.9-0.9c0.6-0.6,1.6-1.7,1.9-2     c0.2-0.2,0.3-0.4,0.4-0.6C51.4,47.6,50.2,46.8,48.8,46.8z M33,50.3C33,50.3,32.9,50.3,33,50.3"></path>				<line class="st3" x1="42.2" y1="46.6" x2="42" y2="50.9"></line>				<line class="st3" x1="37.3" y1="47.3" x2="38.5" y2="50.9"></line>				<line class="st4" x1="47" y1="47.3" x2="45.8" y2="51.1"></line>				<path class="st5" d="M49.7,51.5c-0.4,0.4-0.8,0.7-0.9,0.9c-4.6-0.5-9.2-0.5-13.7,0c-0.3-0.4-0.6-0.6-0.8-0.9     C39.4,50.8,44.6,50.8,49.7,51.5z"></path>				<circle class="st6" cx="42.1" cy="44.3" r="0.9"></circle>				<polygon class="st7" points="43.2,41.5 42.6,41.5 42.6,40.8 41.6,40.8 41.6,41.5 40.9,41.5 40.9,42.5 41.6,42.5 41.6,44      42.6,44 42.6,42.5 43.2,42.5     "></polygon>			</g>			<g>				<polygon class="st8" points="30.1,55.8 30.1,54.1 23.8,54.1 23.8,55.8 24.8,55.8 24.8,76 23.8,76 23.8,77.7 30.1,77.7 30.1,76      29.1,76 29.1,55.8     "></polygon>				<rect x="27.5" y="55.8" width="0.8" height="20.1"></rect>				<g>					<path class="st9" d="M31,66.3c0,1.7-1.9,2.2-3.2,2.5c-0.5,0.1-3.5,0.7-4.2,1.3l-0.3-1.6c1.4-0.7,3.3-1.3,4.1-1.5      c0.7-0.2,1.8-0.4,1.8-0.8c0-0.2,0-0.3-0.1-0.4v-1.7C30.6,64.7,31,65.6,31,66.3z"></path>				</g>				<g>					<path class="st9" d="M24.8,65c-1.3-0.4-2.2-1.1-2.2-2.1c0-2.4,3.8-2.4,5.3-2.4c2.2,0,3.1,0.3,3.8,0.6c0.4,0.1,0.7,0.2,1.1,0.2      l0,1.8c-0.7,0-1.2-0.2-1.6-0.3c-0.6-0.2-1.4-0.5-3.2-0.5c-2.3,0-3,0.2-3.3,0.4c-0.1,0.1-0.1,0.3,0,0.4c0.1,0,0,0,0.2,0.1      L24.8,65z"></path>				</g>				<rect x="23.8" y="54.1" class="st7" width="6.3" height="1.6"></rect>				<rect x="23.8" y="76.1" class="st7" width="6.3" height="1.6"></rect>				<path class="st9" d="M24.6,69.6c0.2,0.3,0.2,0.7,0.1,1.1c-0.1,0.4-0.4,0.7-0.8,0.8c0,0,0,0,0-0.1c0.3-0.7-0.3-1-0.4-1.3     C23.9,69.9,24.2,69.8,24.6,69.6z"></path>			</g>			<g>				<polygon class="st8" points="53.7,55.8 53.7,54.1 60,54.1 60,55.8 59,55.8 59,76 60,76 60,77.7 53.7,77.7 53.7,76 54.7,76      54.7,55.8     "></polygon>				<rect x="55.5" y="55.8" transform="matrix(-1 -4.385660e-11 4.385660e-11 -1 111.7206 131.6499)" width="0.8" height="20.1"></rect>				<g>					<path class="st9" d="M52.8,66.3c0,1.7,1.9,2.2,3.2,2.5c0.5,0.1,3.5,0.7,4.2,1.3l0.3-1.6c-1.4-0.7-3.3-1.3-4.1-1.5      c-0.7-0.2-1.8-0.4-1.8-0.8c0-0.2,0-0.3,0.1-0.4v-1.7C53.2,64.7,52.8,65.6,52.8,66.3z"></path>				</g>				<g>					<path class="st9" d="M59,65c1.3-0.4,2.2-1.1,2.2-2.1c0-2.4-3.8-2.4-5.3-2.4c-2.2,0-3.1,0.3-3.8,0.6c-0.4,0.1-0.7,0.2-1.1,0.2      l0,1.8c0.7,0,1.2-0.2,1.6-0.3c0.6-0.2,1.4-0.5,3.2-0.5c2.3,0,3,0.2,3.3,0.4c0.1,0.1,0.1,0.3,0,0.4c-0.1,0,0,0-0.2,0.1L59,65z"></path>				</g>									<rect x="53.7" y="54.1" transform="matrix(-1 -4.469370e-11 4.469370e-11 -1 113.6909 109.8999)" class="st7" width="6.3" height="1.6"></rect>									<rect x="53.7" y="76.1" transform="matrix(-1 -4.512625e-11 4.512625e-11 -1 113.6909 153.796)" class="st7" width="6.3" height="1.6"></rect>				<path class="st9" d="M59.2,69.6C59,70,59,70.4,59.1,70.7c0.1,0.4,0.4,0.7,0.8,0.8c0,0,0,0,0-0.1c-0.3-0.7,0.3-1,0.4-1.3     C59.9,69.9,59.6,69.8,59.2,69.6z"></path>			</g>			<path class="st10" d="M41.9,54h-9.7l0,18.8c0,1.3,0.5,2.6,1.4,3.5c2.7,2.6,8.2,2.8,8.2,2.8s5.5-0.2,8.2-2.8    c0.9-0.9,1.4-2.2,1.4-3.5l0-18.8H41.9z"></path>			<rect x="32.2" y="54" class="st9" width="9.7" height="11.6"></rect>							<rect x="41.9" y="54" transform="matrix(-1 -4.468216e-11 4.468216e-11 -1 93.4739 119.6177)" class="st8" width="9.7" height="11.6"></rect>			<path class="st7" d="M33.8,65.5v10.4c-1-0.9-1.6-2.2-1.6-3.6v-6.8H33.8z"></path>			<path class="st11" d="M35.4,65.5v11.3c-0.6-0.2-1.2-0.6-1.6-1V65.5H35.4z"></path>			<path class="st7" d="M37,65.5v11.6c-0.6,0-1.1-0.1-1.6-0.3V65.5H37z"></path>			<path class="st11" d="M38.7,65.5v11.3c-0.5,0.2-1.1,0.3-1.6,0.3V65.5H38.7z"></path>			<path class="st7" d="M40.3,65.5v10.3c-0.5,0.4-1,0.8-1.6,1V65.5H40.3z"></path>			<path class="st11" d="M41.9,65.5v6.8c0,1.4-0.6,2.7-1.6,3.6V65.5H41.9z"></path>			<path class="st11" d="M42.8,77.2h7.9c0.5,0,0.9-0.4,0.9-0.9V65.5h-9.7v10.7C41.9,76.8,42.3,77.2,42.8,77.2z"></path>			<path class="st12" d="M46.7,75.2c-1.6,0-2.8-1.3-2.8-2.8v-4.8h5.7v4.8C49.6,73.9,48.3,75.2,46.7,75.2z"></path>			<polygon class="st7" points="39.4,62.7 39.4,57.1 35.2,57.1 35.2,62.7 34.4,62.7 34.4,64.2 40.2,64.2 40.2,62.7    "></polygon>			<rect x="34.7" y="59.3" class="st7" width="5.3" height="1"></rect>			<rect x="34.7" y="57.1" class="st13" width="5.3" height="0.9"></rect>			<rect x="36.7" y="56.1" class="st13" width="1.2" height="1"></rect>			<path class="st6" d="M36.9,62.9h0.8c0.1,0,0.1,0,0.1,0.1v1.2h-1L36.9,62.9C36.8,62.9,36.8,62.9,36.9,62.9z"></path>			<g>				<path class="st7" d="M35.9,60.9h0.6c0,0,0.1,0,0.1,0.1v0.9h-0.8L35.9,60.9C35.9,60.9,35.9,60.9,35.9,60.9z"></path>				<path class="st7" d="M38,60.9h0.6c0,0,0.1,0,0.1,0.1v0.9h-0.8L38,60.9C37.9,60.9,38,60.9,38,60.9z"></path>			</g>			<g>				<rect x="35.8" y="58.8" class="st13" width="0.4" height="0.5"></rect>				<rect x="37.1" y="58.8" class="st13" width="0.4" height="0.5"></rect>				<rect x="38.4" y="58.8" class="st13" width="0.4" height="0.5"></rect>			</g>			<ellipse class="st6" cx="41.9" cy="65.5" rx="2.4" ry="3.4"></ellipse>			<g>				<path class="st14" d="M46.3,58c-0.6,0-1.9-0.3-1.9-1c0-0.4,0.3-1-0.2-1.2c-0.2,0.4-0.1,0.9-0.3,0.9c-0.2,0-0.5-0.2-0.6-0.2     c-0.1,0.3,0.2,0.4,0.4,0.6c-0.1,0-0.6,0.2-0.6,0.4c0,0.1,0.1,0.2,0.3,0.2c0.1,0,0.3,0,0.4,0c0.7,0,0.1,0.8,1.5,1.5l0.3,0     l1.3-0.7L46.3,58z"></path>				<path class="st14" d="M47.4,60.9C47,61.1,46.9,61,46.6,61c-1,0-0.2,0.9-0.2,1.2c0,0.2-0.2,0.3-0.3,0.3c-0.4,0-0.3-0.6-0.9-0.6     c-0.4,0,0.1,0.2,0.2,0.5c-0.6,0.2-0.7,0.5,0,0.5c0,0.1-0.1,0.7,0.1,0.7c0.2,0,0.1-0.6,0.4-0.6c0.5,0,0.9,0.4,0.9-0.2     c0-0.3-0.2-1,0.4-1c0.1,0,0.3,0,0.4,0.1l0.4-0.2l0.1-0.5C47.7,60.9,47.9,61,47.4,60.9z"></path>				<path class="st15" d="M49.1,56c-0.3,0.3-0.6,0.5-0.7,0.6l-1.1-0.9c0-0.4-0.1-0.7,0-0.9c0.3,0.1,0.3,0.5,0.5,0.6     c0.1-0.1,0.1-0.2,0.2-0.3c0.4,0.3-0.1,0.7,0.5,0.4c0.1,0.2-0.1,0.3,0,0.5C48.5,56,49.1,55.9,49.1,56z"></path>				<path class="st14" d="M48.5,58.5c-0.1-0.2-0.2-0.2-0.4-0.3c-0.1,0.2-0.1,0.4-0.1,0.6c-0.1-0.1-0.2-0.2-0.2-0.3     c-0.1,0.2,0,0.5-0.1,0.7c-0.2-0.4-0.2-0.4-0.2-0.2c0,0.2,0,0.3,0,0.5h0c-0.1,0.1-0.2,0.2-0.4,0.1c0-0.1-0.1-0.2-0.1-0.4     c0-0.1-0.1-0.2-0.1-0.3c-0.1,0.1-0.1,0.1-0.2,0.2c0,0,0,0-0.1,0.1l0,0c0,0,0,0,0,0h0l-0.1,0.1c0,0,0,0,0,0c0,0,0,0,0,0     c0-0.1,0-0.2-0.1-0.3c0,0,0-0.1,0-0.1c0,0-0.1,0-0.1,0c-0.1,0-0.3,0.2-0.4,0.2c0-0.1,0-0.3,0.1-0.4h0c0-0.1,0-0.2,0-0.3     c-0.1,0-0.8,0.1-0.8-0.1c0-0.3,1.3-0.2,1.3-0.5c0-0.1-0.4-0.2-0.4-0.4c0-0.1,0.2-0.2,0.2-0.3c0-0.3-0.2-0.6-0.2-0.8     c0-0.1,0.1,0,0.6,0c0.3,0-0.1-0.1,0.5-0.4l1.1,0.9c0,0.4,0.1,0.8,0.1,1C47.8,56.9,48.4,58.1,48.5,58.5z"></path>				<path class="st14" d="M46.7,59C46.7,59.1,46.6,59.1,46.7,59C46.6,59.1,46.7,59.1,46.7,59L46.7,59z"></path>				<path class="st14" d="M46.7,59C46.7,59.1,46.6,59.1,46.7,59C46.6,59.1,46.7,59.1,46.7,59L46.7,59z"></path>				<path class="st14" d="M49.5,58.1c0,0.7,0.5,1.5,0.5,2.3c0,1.3-1.5,0.8-1.5,1.6c0,0.6,0.8,0.6,0.8,0.9c0,0.4-0.4,0.4-0.4,0.9     c0,0.3,0.2,0.6,0,1c-0.1-0.2-0.2-0.4-0.4-0.5c-0.2,0.2-0.3,0.2-0.6,0.3c0-0.2,0.1-0.4,0.2-0.6c-0.1,0-0.3,0.1-0.5,0.1     c-0.1,0-0.2,0-0.2-0.1c0-0.4,1-0.2,1-0.8c0-0.4-0.3-0.2-0.6-0.2c-0.2,0-0.4-0.2-0.4-0.5c0-0.6,0.5-1-0.2-1.6     c-0.3-0.3-0.9-0.5-1.2-0.8C46.1,60,46,59.9,46,59.7h0c0.5-0.2,0.7-0.6,0.7-0.7c0,0,0,0,0,0l0,0c0,0,0-0.1,0.1-0.1     c0.1-0.1,0.1-0.1,0.2-0.2c0,0.1,0.1,0.2,0.1,0.3c0,0.1,0.1,0.2,0.1,0.4c0.1,0,0.3,0,0.4-0.1h0c0.1,0.8,0.5,1.6,1.3,1.6     c0.4,0,0.5-0.4,0.5-0.8c0-0.6-0.3-0.9-0.3-2.1c0-0.6,0.1-1.4,0.3-1.9c0-0.1,0.1-0.2,0.1-0.2c0.1,0.1,0.1,0.4,0.1,0.6     c0.2-0.3,0.5-0.7,0.8-0.6c0,0.6-0.2,0.5-0.5,1c0.1,0,0.3-0.1,0.4,0C50.4,56.9,49.5,57.9,49.5,58.1z"></path>				<path class="st14" d="M46.7,59c-0.1,0.1-0.2,0.5-0.7,0.7h0c-0.5,0.2-0.9,0.1-1.5,1.3c-0.4-0.1-0.3-0.2-0.3-0.4     c0-0.3-0.3-0.2-0.5-0.2c0-0.3,0.3-0.3,0.4-0.4c-0.2-0.1-0.3-0.3-0.4-0.5c0.7,0,0.5,0.5,1.6-0.4c0.2-0.1,0.4-0.4,0.7-0.5     c0,0.1,0,0.3-0.1,0.4c0.1,0,0.3-0.1,0.4-0.2c0,0,0.1,0,0.1,0c0,0,0,0.1,0,0.1c0,0.1,0.1,0.2,0.1,0.3c0,0,0,0,0,0c0,0,0,0,0,0     L46.7,59C46.7,59.1,46.6,59.1,46.7,59C46.6,59.1,46.7,59.1,46.7,59z"></path>				<path class="st14" d="M46.7,59C46.7,59.1,46.6,59.1,46.7,59C46.6,59.1,46.7,59.1,46.7,59L46.7,59z"></path>			</g>			<g>				<g>					<g>						<ellipse class="st16" cx="41.9" cy="76.6" rx="1" ry="1.1"></ellipse>						<path d="M41.9,75.2c-0.7,0-1.3,0.6-1.3,1.4c0,0.7,0.5,1.3,1.1,1.4c0.1,0,0.1,0,0.2,0s0.1,0,0.2,0c0.6-0.1,1.1-0.7,1.1-1.4       C43.2,75.8,42.6,75.2,41.9,75.2z M42.1,77.4c-0.1,0-0.1,0-0.2,0s-0.1,0-0.2,0c-0.3-0.1-0.5-0.4-0.5-0.8c0-0.4,0.3-0.8,0.7-0.8       c0.4,0,0.7,0.4,0.7,0.8C42.6,77,42.4,77.3,42.1,77.4z"></path>					</g>					<path d="M39.5,77.4c-0.1,0-0.1,0.1,0,0.1c0.4,0.3,1.7,1.3,2.1,0.9C42.6,77.3,40.2,77.4,39.5,77.4z"></path>					<path class="st17" d="M41.3,78.2c-0.2,0-0.6-0.2-1.1-0.5c1.1,0,1.3,0.3,1.3,0.3C41.5,78,41.5,78.1,41.3,78.2      C41.4,78.2,41.3,78.2,41.3,78.2z"></path>					<path d="M44.3,77.4c0.1,0,0.1,0.1,0,0.1c-0.4,0.3-1.7,1.3-2.1,0.9C41.2,77.3,43.6,77.4,44.3,77.4z"></path>					<path class="st17" d="M42.5,78.2C42.5,78.2,42.4,78.2,42.5,78.2c-0.2-0.2-0.2-0.2-0.2-0.3l0,0c0,0,0.2-0.2,1.3-0.3      C43.1,78,42.7,78.2,42.5,78.2z"></path>					<g>						<path d="M42.1,78v1.1h-0.4V78c0.1,0,0.1,0,0.2,0S42,78,42.1,78z"></path>					</g>				</g>				<g>					<g>						<ellipse class="st1" cx="41.9" cy="76.3" rx="0.4" ry="1.2"></ellipse>						<ellipse class="st18" cx="41.9" cy="76.3" rx="0.4" ry="1.2"></ellipse>					</g>				</g>			</g>		</g>	</g>			<radialGradient id="SVGID_00000133489208882515249690000003609482051171036589_" cx="60" cy="60" r="49.9535" gradientUnits="userSpaceOnUse">		<stop offset="0" style="stop-color:#FFFFFF"></stop>		<stop offset="0.3561" style="stop-color:#FDFDFD"></stop>		<stop offset="0.4844" style="stop-color:#F6F6F6"></stop>		<stop offset="0.5759" style="stop-color:#EBEBEB"></stop>		<stop offset="0.6499" style="stop-color:#DADADA"></stop>		<stop offset="0.7132" style="stop-color:#C4C4C4"></stop>		<stop offset="0.7693" style="stop-color:#A8A8A8"></stop>		<stop offset="0.8201" style="stop-color:#888888"></stop>		<stop offset="0.8667" style="stop-color:#626262"></stop>		<stop offset="0.9101" style="stop-color:#373737"></stop>		<stop offset="0.9487" style="stop-color:#090909"></stop>		<stop offset="0.9557" style="stop-color:#000000"></stop>	</radialGradient>			<circle style="opacity:0.3;clip-path:url(#SVGID_00000109743988968813291400000003315483094784692917_);fill:url(#SVGID_00000133489208882515249690000003609482051171036589_);" cx="60" cy="60" r="50"></circle></g></svg>