<svg xmlns="http://www.w3.org/2000/svg" xmlns:xlink="http://www.w3.org/1999/xlink" viewBox="0 0 900.06 900.06"><defs><style>.cls-1{isolation:isolate;}.cls-2{fill:#ce1126;}.cls-3{fill:url(#radial-gradient);mix-blend-mode:multiply;opacity:.3;}.cls-4{clip-path:url(#clippath);}.cls-5{fill:none;}.cls-6{fill:#007a5e;}.cls-7{fill:#fcd116;}</style><clipPath id="clippath"><circle class="cls-5" cx="450.03" cy="450.03" r="450.03"></circle></clipPath><radialGradient id="radial-gradient" cx="450.03" cy="450.03" fx="450.03" fy="450.03" r="450.03" gradientUnits="userSpaceOnUse"><stop offset="0" stop-color="#fff"></stop><stop offset=".36" stop-color="#fdfdfd"></stop><stop offset=".48" stop-color="#f6f6f6"></stop><stop offset=".58" stop-color="#eaeaea"></stop><stop offset=".65" stop-color="#d9d9d9"></stop><stop offset=".71" stop-color="#c3c3c3"></stop><stop offset=".77" stop-color="#a8a8a8"></stop><stop offset=".82" stop-color="#878787"></stop><stop offset=".87" stop-color="#626262"></stop><stop offset=".91" stop-color="#373737"></stop><stop offset=".95" stop-color="#090909"></stop><stop offset=".96" stop-color="#000"></stop></radialGradient></defs><g class="cls-1"><g id="Layer_2"><g id="Layer_1-2"><g id="Grenada"><g class="cls-4"><g id="Grenada-2"><polygon class="cls-6" points="450.02 450.02 -173.58 773.64 -173.58 126.44 450.02 450.02"></polygon><polygon class="cls-6" points="1073.62 126.44 1073.62 773.64 450.02 450.02 1073.62 126.44"></polygon><rect class="cls-2" x="-300.02" y="0" width="1500.09" height="900.06"></rect><polygon class="cls-7" points="1073.62 126.44 450.02 450.02 -173.58 126.44 1073.62 126.44"></polygon><polygon class="cls-7" points="1073.62 773.64 -173.58 773.64 450.02 450.02 1073.62 773.64"></polygon><polygon class="cls-6" points="-173.58 126.44 450.02 450.02 -173.58 773.64 -173.58 126.44"></polygon><polygon class="cls-6" points="1073.62 126.44 1073.62 773.64 450.02 450.02 1073.62 126.44"></polygon><g><g><polygon class="cls-7" points="450.02 10.2 462.9 49.84 504.58 49.84 470.86 74.34 483.74 113.98 450.02 89.48 416.3 113.98 429.18 74.34 395.46 49.84 437.14 49.84 450.02 10.2"></polygon><polygon class="cls-7" points="150.42 10.2 163.3 49.84 204.98 49.84 171.26 74.34 184.14 113.98 150.42 89.48 116.7 113.98 129.58 74.34 95.86 49.84 137.54 49.84 150.42 10.2"></polygon><polygon class="cls-7" points="749.62 10.2 736.74 49.84 695.06 49.84 728.78 74.34 715.9 113.98 749.62 89.48 783.34 113.98 770.46 74.34 804.18 49.84 762.5 49.84 749.62 10.2"></polygon></g><g><polygon class="cls-7" points="450.02 786.07 462.9 825.71 504.58 825.71 470.86 850.21 483.74 889.85 450.02 865.36 416.3 889.85 429.18 850.21 395.46 825.71 437.14 825.71 450.02 786.07"></polygon><polygon class="cls-7" points="150.42 786.07 163.3 825.71 204.98 825.71 171.26 850.21 184.14 889.85 150.42 865.36 116.7 889.85 129.58 850.21 95.86 825.71 137.54 825.71 150.42 786.07"></polygon><polygon class="cls-7" points="749.62 786.07 736.74 825.71 695.06 825.71 728.78 850.21 715.9 889.85 749.62 865.36 783.34 889.85 770.46 850.21 804.18 825.71 762.5 825.71 749.62 786.07"></polygon></g></g><circle class="cls-2" cx="450.02" cy="450.02" r="108.42"></circle><polygon class="cls-7" points="450.03 351.11 472.23 419.45 544.09 419.45 485.96 461.69 508.16 530.03 450.03 487.8 391.89 530.03 414.1 461.69 355.96 419.45 427.82 419.45 450.03 351.11"></polygon></g><circle class="cls-3" cx="450.03" cy="450.03" r="450.03"></circle></g></g></g></g></g></svg>