<svg xmlns="http://www.w3.org/2000/svg" xmlns:xlink="http://www.w3.org/1999/xlink" viewBox="0 0 900.06 900.06"><defs><style>.cls-1{fill:#fff;}.cls-2{fill:#c8102e;}.cls-3{isolation:isolate;}.cls-4{fill:url(#radial-gradient);mix-blend-mode:multiply;opacity:.3;}.cls-5{fill:#009739;}.cls-6{clip-path:url(#clippath);}.cls-7{fill:none;}.cls-8{fill:#ffcd00;}</style><clipPath id="clippath"><circle class="cls-7" cx="450.03" cy="450.03" r="450.03"></circle></clipPath><radialGradient id="radial-gradient" cx="450.03" cy="450.03" fx="450.03" fy="450.03" r="450.03" gradientUnits="userSpaceOnUse"><stop offset="0" stop-color="#fff"></stop><stop offset=".36" stop-color="#fdfdfd"></stop><stop offset=".48" stop-color="#f6f6f6"></stop><stop offset=".58" stop-color="#eaeaea"></stop><stop offset=".65" stop-color="#d9d9d9"></stop><stop offset=".71" stop-color="#c3c3c3"></stop><stop offset=".77" stop-color="#a8a8a8"></stop><stop offset=".82" stop-color="#878787"></stop><stop offset=".87" stop-color="#626262"></stop><stop offset=".91" stop-color="#373737"></stop><stop offset=".95" stop-color="#090909"></stop><stop offset=".96" stop-color="#000"></stop></radialGradient></defs><g class="cls-3"><g id="Layer_2"><g id="Layer_1-2"><g id="Saint_Kitts_and_Nevis"><g class="cls-6"><g><polygon class="cls-2" points="1125.34 227.69 1125.34 900.06 116.34 900.06 1125.34 227.69"></polygon><polygon class="cls-5" points="783.72 0 -225.28 672.41 -225.28 0 783.72 0"></polygon><polygon class="cls-5" points="1125.34 0 1125.34 227.69 116.34 900.06 -225.28 900.06 -225.28 672.41 783.72 0 1125.34 0"></polygon><polygon class="cls-8" points="1125.34 0 1125.34 227.69 116.34 900.06 -225.28 900.06 -225.28 672.41 783.72 0 1125.34 0"></polygon><polygon points="1125.34 0 1125.34 160.69 15.87 900.06 -225.28 900.06 -225.28 739.36 884.23 0 1125.34 0"></polygon><polygon class="cls-1" points="647.8 183.98 718.26 239.55 792.89 189.7 761.82 273.89 832.28 329.46 742.61 325.93 711.54 410.12 687.19 323.74 597.52 320.21 672.14 270.36 647.8 183.98"></polygon><polygon class="cls-1" points="129.11 530.46 199.58 586.02 274.2 536.18 243.13 620.37 313.6 675.93 223.93 672.4 192.86 756.59 168.51 670.21 78.84 666.68 153.46 616.83 129.11 530.46"></polygon></g><circle class="cls-4" cx="450.03" cy="450.03" r="450.03"></circle></g></g></g></g></g></svg>