<svg xmlns="http://www.w3.org/2000/svg" xmlns:xlink="http://www.w3.org/1999/xlink" viewBox="0 0 958.95 958.95"><defs><style>.cls-1{fill:#fff;}.cls-2{isolation:isolate;}.cls-3{fill:url(#radial-gradient);mix-blend-mode:multiply;opacity:.3;}.cls-4{clip-path:url(#clippath);}.cls-5{fill:none;}.cls-6{fill:#e30a17;}</style><clipPath id="clippath"><circle class="cls-5" cx="479.47" cy="479.47" r="479.47"></circle></clipPath><radialGradient id="radial-gradient" cx="479.47" cy="479.47" fx="479.47" fy="479.47" r="479.47" gradientUnits="userSpaceOnUse"><stop offset="0" stop-color="#fff"></stop><stop offset=".36" stop-color="#fdfdfd"></stop><stop offset=".48" stop-color="#f6f6f6"></stop><stop offset=".58" stop-color="#eaeaea"></stop><stop offset=".65" stop-color="#d9d9d9"></stop><stop offset=".71" stop-color="#c3c3c3"></stop><stop offset=".77" stop-color="#a8a8a8"></stop><stop offset=".82" stop-color="#878787"></stop><stop offset=".87" stop-color="#626262"></stop><stop offset=".91" stop-color="#373737"></stop><stop offset=".95" stop-color="#090909"></stop><stop offset=".96" stop-color="#000"></stop></radialGradient></defs><g class="cls-2"><g id="Layer_2"><g id="Layer_1-2"><g id="Turkey"><g class="cls-4"><g><rect class="cls-6" x="-220.06" y="0" width="1353.81" height="958.95"></rect><polygon class="cls-1" points="640.54 548.99 563.62 521.72 515.44 591.02 516.08 504.87 439.17 477.59 516.48 451.62 517.12 365.47 564.26 435.57 641.58 409.6 593.4 478.89 640.54 548.99"></polygon><path class="cls-1" d="m317.39,670.86c-99.76,0-180.63-85.78-180.63-191.59s80.87-191.59,180.63-191.59c53.19,0,101.01,24.39,134.06,63.2-40.11-66.85-110.49-111.18-190.63-111.18-124.77,0-225.92,107.47-225.92,240.04s101.15,240.04,225.92,240.04c81.38,0,152.7-45.72,192.47-114.3-33.11,40.08-81.71,65.39-135.9,65.39Z"></path></g></g><circle class="cls-3" cx="479.47" cy="479.47" r="479.47"></circle></g></g></g></g></svg>