<svg xmlns="http://www.w3.org/2000/svg" xmlns:xlink="http://www.w3.org/1999/xlink" viewBox="0 0 900.06 900.06"><defs><style>.cls-1{fill:#b22234;}.cls-2{fill:#fff;}.cls-3{fill:#3c3b6e;}.cls-4{isolation:isolate;}.cls-5{fill:url(#radial-gradient);mix-blend-mode:multiply;opacity:.3;}.cls-6{clip-path:url(#clippath);}.cls-7{fill:none;}</style><clipPath id="clippath"><circle class="cls-7" cx="450.03" cy="450.03" r="450.03"></circle></clipPath><radialGradient id="radial-gradient" cx="450.03" cy="450.03" fx="450.03" fy="450.03" r="450.03" gradientUnits="userSpaceOnUse"><stop offset="0" stop-color="#fff"></stop><stop offset=".36" stop-color="#fdfdfd"></stop><stop offset=".48" stop-color="#f6f6f6"></stop><stop offset=".58" stop-color="#eaeaea"></stop><stop offset=".65" stop-color="#d9d9d9"></stop><stop offset=".71" stop-color="#c3c3c3"></stop><stop offset=".77" stop-color="#a8a8a8"></stop><stop offset=".82" stop-color="#878787"></stop><stop offset=".87" stop-color="#626262"></stop><stop offset=".91" stop-color="#373737"></stop><stop offset=".95" stop-color="#090909"></stop><stop offset=".96" stop-color="#000"></stop></radialGradient></defs><g class="cls-4"><g id="Layer_2"><g id="Layer_1-2"><g id="USA"><g class="cls-6"><g><g><rect class="cls-2" x="-240.37" y="69.24" width="1725.99" height="69.24"></rect><rect class="cls-2" x="-240.37" y="207.71" width="1725.99" height="69.24"></rect><rect class="cls-2" x="-240.37" y="346.18" width="1725.99" height="69.24"></rect><rect class="cls-2" x="-240.37" y="484.65" width="1725.99" height="69.24"></rect><rect class="cls-2" x="-240.37" y="623.12" width="1725.99" height="69.24"></rect><rect class="cls-2" x="-240.37" y="761.59" width="1725.99" height="69.24"></rect></g><g><rect class="cls-1" x="-240.37" y="0" width="1725.99" height="69.24"></rect><rect class="cls-1" x="-240.37" y="138.47" width="1725.99" height="69.24"></rect><rect class="cls-1" x="-240.37" y="276.94" width="1725.99" height="69.24"></rect><rect class="cls-1" x="-240.37" y="415.41" width="1725.99" height="69.24"></rect><rect class="cls-1" x="-240.37" y="553.88" width="1725.99" height="69.24"></rect><rect class="cls-1" x="-240.37" y="692.35" width="1725.99" height="69.24"></rect><rect class="cls-1" x="-240.37" y="830.82" width="1725.99" height="69.24"></rect></g><rect class="cls-3" x="-240.37" y="0" width="690.4" height="484.65"></rect><g><polygon class="cls-2" points="-10.58 99.24 -4.66 117.48 14.52 117.48 -1 128.75 4.93 146.98 -10.58 135.71 -26.1 146.98 -20.17 128.75 -35.68 117.48 -16.51 117.48 -10.58 99.24"></polygon><polygon class="cls-2" points="66.45 99.24 72.38 117.48 91.55 117.48 76.04 128.75 81.96 146.98 66.45 135.71 50.94 146.98 56.86 128.75 41.35 117.48 60.52 117.48 66.45 99.24"></polygon><polygon class="cls-2" points="143.31 99.24 149.23 117.48 168.41 117.48 152.89 128.75 158.82 146.98 143.31 135.71 127.8 146.98 133.72 128.75 118.21 117.48 137.38 117.48 143.31 99.24"></polygon><polygon class="cls-2" points="219.99 99.24 225.91 117.48 245.09 117.48 229.58 128.75 235.5 146.98 219.99 135.71 204.48 146.98 210.4 128.75 194.89 117.48 214.06 117.48 219.99 99.24"></polygon><polygon class="cls-2" points="296.49 99.24 302.42 117.48 321.59 117.48 306.08 128.75 312.01 146.98 296.49 135.71 280.98 146.98 286.91 128.75 271.39 117.48 290.57 117.48 296.49 99.24"></polygon><polygon class="cls-2" points="373.35 99.24 379.28 117.48 398.45 117.48 382.94 128.75 388.86 146.98 373.35 135.71 357.84 146.98 363.76 128.75 348.25 117.48 367.43 117.48 373.35 99.24"></polygon><polygon class="cls-2" points="-10.58 260.9 -4.66 279.14 14.52 279.14 -1 290.41 4.93 308.64 -10.58 297.37 -26.1 308.64 -20.17 290.41 -35.68 279.14 -16.51 279.14 -10.58 260.9"></polygon><polygon class="cls-2" points="66.45 260.9 72.38 279.14 91.55 279.14 76.04 290.41 81.96 308.64 66.45 297.37 50.94 308.64 56.86 290.41 41.35 279.14 60.52 279.14 66.45 260.9"></polygon><polygon class="cls-2" points="143.31 260.9 149.23 279.14 168.41 279.14 152.89 290.41 158.82 308.64 143.31 297.37 127.8 308.64 133.72 290.41 118.21 279.14 137.38 279.14 143.31 260.9"></polygon><polygon class="cls-2" points="219.99 260.9 225.91 279.14 245.09 279.14 229.58 290.41 235.5 308.64 219.99 297.37 204.48 308.64 210.4 290.41 194.89 279.14 214.06 279.14 219.99 260.9"></polygon><polygon class="cls-2" points="296.49 260.9 302.42 279.14 321.59 279.14 306.08 290.41 312.01 308.64 296.49 297.37 280.98 308.64 286.91 290.41 271.39 279.14 290.57 279.14 296.49 260.9"></polygon><polygon class="cls-2" points="373.35 260.9 379.28 279.14 398.45 279.14 382.94 290.41 388.86 308.64 373.35 297.37 357.84 308.64 363.76 290.41 348.25 279.14 367.43 279.14 373.35 260.9"></polygon><polygon class="cls-2" points="-10.58 422.56 -4.66 440.79 14.52 440.79 -1 452.06 4.93 470.3 -10.58 459.03 -26.1 470.3 -20.17 452.06 -35.68 440.79 -16.51 440.79 -10.58 422.56"></polygon><polygon class="cls-2" points="66.45 422.56 72.38 440.79 91.55 440.79 76.04 452.06 81.96 470.3 66.45 459.03 50.94 470.3 56.86 452.06 41.35 440.79 60.52 440.79 66.45 422.56"></polygon><polygon class="cls-2" points="143.31 422.56 149.23 440.79 168.41 440.79 152.89 452.06 158.82 470.3 143.31 459.03 127.8 470.3 133.72 452.06 118.21 440.79 137.38 440.79 143.31 422.56"></polygon><polygon class="cls-2" points="219.99 422.56 225.91 440.79 245.09 440.79 229.58 452.06 235.5 470.3 219.99 459.03 204.48 470.3 210.4 452.06 194.89 440.79 214.06 440.79 219.99 422.56"></polygon><polygon class="cls-2" points="296.49 422.56 302.42 440.79 321.59 440.79 306.08 452.06 312.01 470.3 296.49 459.03 280.98 470.3 286.91 452.06 271.39 440.79 290.57 440.79 296.49 422.56"></polygon><polygon class="cls-2" points="373.35 422.56 379.28 440.79 398.45 440.79 382.94 452.06 388.86 470.3 373.35 459.03 357.84 470.3 363.76 452.06 348.25 440.79 367.43 440.79 373.35 422.56"></polygon><polygon class="cls-2" points="27.91 18.61 33.84 36.85 53.01 36.85 37.5 48.12 43.42 66.35 27.91 55.08 12.4 66.35 18.32 48.12 2.81 36.85 21.99 36.85 27.91 18.61"></polygon><polygon class="cls-2" points="104.83 18.61 110.76 36.85 129.93 36.85 114.42 48.12 120.34 66.35 104.83 55.08 89.32 66.35 95.24 48.12 79.73 36.85 98.9 36.85 104.83 18.61"></polygon><polygon class="cls-2" points="181.67 18.61 187.6 36.85 206.77 36.85 191.26 48.12 197.18 66.35 181.67 55.08 166.16 66.35 172.08 48.12 156.57 36.85 175.75 36.85 181.67 18.61"></polygon><polygon class="cls-2" points="258.44 18.61 264.36 36.85 283.54 36.85 268.03 48.12 273.95 66.35 258.44 55.08 242.93 66.35 248.85 48.12 233.34 36.85 252.51 36.85 258.44 18.61"></polygon><polygon class="cls-2" points="335.12 18.61 341.05 36.85 360.22 36.85 344.71 48.12 350.63 66.35 335.12 55.08 319.61 66.35 325.53 48.12 310.02 36.85 329.2 36.85 335.12 18.61"></polygon><polygon class="cls-2" points="411.71 18.61 417.64 36.85 436.81 36.85 421.3 48.12 427.23 66.35 411.71 55.08 396.2 66.35 402.13 48.12 386.61 36.85 405.79 36.85 411.71 18.61"></polygon><polygon class="cls-2" points="27.91 180.27 33.84 198.51 53.01 198.51 37.5 209.78 43.42 228.01 27.91 216.74 12.4 228.01 18.32 209.78 2.81 198.51 21.99 198.51 27.91 180.27"></polygon><polygon class="cls-2" points="104.83 180.27 110.76 198.51 129.93 198.51 114.42 209.78 120.34 228.01 104.83 216.74 89.32 228.01 95.24 209.78 79.73 198.51 98.9 198.51 104.83 180.27"></polygon><polygon class="cls-2" points="181.67 180.27 187.6 198.51 206.77 198.51 191.26 209.78 197.18 228.01 181.67 216.74 166.16 228.01 172.08 209.78 156.57 198.51 175.75 198.51 181.67 180.27"></polygon><polygon class="cls-2" points="258.44 180.27 264.36 198.51 283.54 198.51 268.03 209.78 273.95 228.01 258.44 216.74 242.93 228.01 248.85 209.78 233.34 198.51 252.51 198.51 258.44 180.27"></polygon><polygon class="cls-2" points="335.12 180.27 341.05 198.51 360.22 198.51 344.71 209.78 350.63 228.01 335.12 216.74 319.61 228.01 325.53 209.78 310.02 198.51 329.2 198.51 335.12 180.27"></polygon><polygon class="cls-2" points="411.71 180.27 417.64 198.51 436.81 198.51 421.3 209.78 427.23 228.01 411.71 216.74 396.2 228.01 402.13 209.78 386.61 198.51 405.79 198.51 411.71 180.27"></polygon><polygon class="cls-2" points="27.91 341.93 33.84 360.16 53.01 360.16 37.5 371.43 43.42 389.67 27.91 378.4 12.4 389.67 18.32 371.43 2.81 360.16 21.99 360.16 27.91 341.93"></polygon><polygon class="cls-2" points="104.83 341.93 110.76 360.16 129.93 360.16 114.42 371.43 120.34 389.67 104.83 378.4 89.32 389.67 95.24 371.43 79.73 360.16 98.9 360.16 104.83 341.93"></polygon><polygon class="cls-2" points="181.67 341.93 187.6 360.16 206.77 360.16 191.26 371.43 197.18 389.67 181.67 378.4 166.16 389.67 172.08 371.43 156.57 360.16 175.75 360.16 181.67 341.93"></polygon><polygon class="cls-2" points="258.44 341.93 264.36 360.16 283.54 360.16 268.03 371.43 273.95 389.67 258.44 378.4 242.93 389.67 248.85 371.43 233.34 360.16 252.51 360.16 258.44 341.93"></polygon><polygon class="cls-2" points="335.12 341.93 341.05 360.16 360.22 360.16 344.71 371.43 350.63 389.67 335.12 378.4 319.61 389.67 325.53 371.43 310.02 360.16 329.2 360.16 335.12 341.93"></polygon><polygon class="cls-2" points="411.71 341.93 417.64 360.16 436.81 360.16 421.3 371.43 427.23 389.67 411.71 378.4 396.2 389.67 402.13 371.43 386.61 360.16 405.79 360.16 411.71 341.93"></polygon></g></g></g><circle class="cls-5" cx="450.03" cy="450.03" r="450.03"></circle></g></g></g></g></svg>